<?xml version="1.0" standalone="no"?><!DOCTYPE svg PUBLIC "-//W3C//DTD SVG 1.1//EN" "http://www.w3.org/Graphics/SVG/1.1/DTD/svg11.dtd"><svg t="1771820276536" class="icon" viewBox="0 0 1024 1024" version="1.1" xmlns="http://www.w3.org/2000/svg" p-id="5147" xmlns:xlink="http://www.w3.org/1999/xlink" width="200" height="200"><path d="M462.592 103.808c17.856-4.544 35.2-7.808 49.408-7.808 14.208 0 31.552 3.2 49.408 7.808 18.432 4.672 39.552 11.328 62.08 19.328 44.928 16 96.768 37.696 145.92 61.184 49.024 23.424 96.32 49.088 131.84 72.96 17.6 11.904 33.408 24.064 45.184 35.968 5.888 5.952 11.52 12.608 15.808 19.84 4.224 7.04 8.448 16.768 8.448 28.224 0 11.52-4.224 21.12-8.448 28.224a106.496 106.496 0 0 1-15.808 19.84 282.88 282.88 0 0 1-39.808 32.256v276.224c3.648 8.128 8.32 16.832 14.016 27.52 3.776 7.04 8 14.976 12.608 24.064 12.288 24.064 25.6 53.12 33.472 86.4 5.312 22.144 8.448 51.456-12.416 72.384a64.64 64.64 0 0 1-32.448 16.768 158.08 158.08 0 0 1-33.728 3.008h-26.88c-11.584 0-23.232-0.64-33.792-3.008a64.576 64.576 0 0 1-32.448-16.768c-20.864-20.928-17.728-50.24-12.416-72.384 7.872-33.28 21.12-62.336 33.472-86.4 4.608-9.088 8.832-17.024 12.608-24.064 5.76-10.688 10.368-19.392 13.952-27.52V460.8c-13.824 7.68-28.352 15.36-43.2 22.848l-9.92 227.264a89.216 89.216 0 0 1-3.52 22.144 99.2 99.2 0 0 1-36.352 52.608c-28.544 20.48-66.56 34.496-106.816 43.52a610.752 610.752 0 0 1-130.816 13.44c-44.864 0-90.112-4.416-130.88-13.44-40.32-9.024-78.208-23.04-106.752-43.52a99.2 99.2 0 0 1-36.416-52.608c-2.496-8.32-3.2-16.128-3.456-22.144l-9.92-227.328c-38.016-19.2-73.6-39.232-101.76-58.24a300.608 300.608 0 0 1-45.248-35.904 106.56 106.56 0 0 1-15.808-19.904 55.36 55.36 0 0 1-8.448-28.16c0-11.52 4.224-21.184 8.448-28.224 4.288-7.296 9.92-13.952 15.808-19.84 11.776-11.968 27.52-24.128 45.184-36.032 35.52-23.872 82.816-49.536 131.84-72.96a1559.68 1559.68 0 0 1 145.92-61.184c22.528-8 43.648-14.656 62.08-19.328z m-346.176 242.56l0.128-0.128-0.128 0.192z m3.84-5.056c0.768 0.96 1.728 1.984 2.88 3.2 7.488 7.552 19.328 16.96 35.392 27.776 31.872 21.44 76.096 45.568 123.648 68.288 47.36 22.72 97.152 43.52 139.776 58.624 21.312 7.552 40.448 13.568 56.384 17.664 16.576 4.16 27.648 5.76 33.664 5.76 6.016 0 17.088-1.6 33.664-5.76 15.936-4.096 35.072-10.112 56.384-17.664a1496.64 1496.64 0 0 0 139.776-58.624c47.552-22.72 91.776-46.848 123.648-68.288 16.064-10.88 27.904-20.224 35.392-27.84l2.944-3.136a74.752 74.752 0 0 0-2.944-3.136 239.936 239.936 0 0 0-35.392-27.776c-31.872-21.504-76.096-45.568-123.648-68.352-47.36-22.656-97.152-43.52-139.776-58.624a666.752 666.752 0 0 0-56.384-17.6A155.84 155.84 0 0 0 512 160c-6.016 0-17.088 1.6-33.664 5.824-15.936 4.096-35.072 10.048-56.384 17.6-42.624 15.104-92.352 35.968-139.776 58.624-47.552 22.784-91.776 46.848-123.648 68.352-16.064 10.816-27.904 20.224-35.392 27.776a75.776 75.776 0 0 0-2.944 3.2z m787.328 5.12l-0.064-0.192v0.192z m0-10.24z m-791.04 0.192a0.96 0.96 0 0 1-0.128-0.128l0.128 0.128z m506.88 223.168c-22.4 7.936-43.52 14.592-62.016 19.328-17.856 4.48-35.2 7.808-49.408 7.808-14.208 0-31.552-3.264-49.408-7.808a729.216 729.216 0 0 1-62.08-19.328 1491.328 1491.328 0 0 1-110.528-44.8l8.448 193.408a27.392 27.392 0 0 0 0.768 6.336 35.52 35.52 0 0 0 12.416 19.2c18.88 13.44 47.552 24.96 83.456 32.96A547.2 547.2 0 0 0 512 778.688a547.2 547.2 0 0 0 116.864-12.032c35.904-8 64.64-19.456 83.52-33.024a35.52 35.52 0 0 0 12.416-19.136 27.648 27.648 0 0 0 0.768-6.4l8.384-193.28c-38.016 17.088-76.224 32.576-110.528 44.736z m249.6 219.008c-11.392 22.272-22.016 46.08-28.16 72.064-1.344 5.568-1.92 9.472-2.112 12.16 3.968 0.704 9.792 1.216 18.432 1.216h26.88c8.704 0 14.592-0.512 18.56-1.216a80.384 80.384 0 0 0-2.176-12.16 322.816 322.816 0 0 0-28.16-72.064l-1.664-3.2-1.6 3.2z" fill="currentColor" p-id="5148"></path></svg>